<?xml version="1.0" encoding="UTF-8"?> <svg xmlns="http://www.w3.org/2000/svg" id="Game_Insight" width="510" height="210" viewBox="0 0 510 210"><defs><style>.cls-1{fill:#231f20;}</style></defs><path class="cls-1" d="m268.03,138.24c0,8.75-4.16,13.57-11.68,13.57s-11.6-4.83-11.6-13.57v-30.19h-9.07v29.97c0,13.95,7.73,22.27,20.67,22.27s20.67-8.32,20.67-22.27v-29.97h-8.99v30.19Z"></path><path class="cls-1" d="m302.96,120.9c-5.36,0-10.4,2.13-12.88,6.19v-5.41h-7.73v37.89h8.99v-20.35c0-6.53,3.41-10.43,9.15-10.43,3.92,0,8.59,1.71,8.59,9.87v20.91h8.99v-22.13c.03-12.19-7.79-16.53-15.09-16.53h0Z"></path><rect class="cls-1" x="323.65" y="121.68" width="8.91" height="37.89"></rect><path class="cls-1" d="m328.13,107.7c-2.91,0-5.2,2.24-5.2,5.12s2.32,5.04,5.2,5.04,5.12-2.27,5.12-5.04-2.29-5.12-5.12-5.12Z"></path><path class="cls-1" d="m356.69,120.9c-5.55,0-10.61,2-14.29,5.6-3.65,3.63-5.68,8.61-5.68,14.08,0,11.41,8.4,19.71,19.97,19.71s20.03-8.29,20.03-19.71c0-5.47-2.03-10.48-5.68-14.08-3.68-3.63-8.77-5.6-14.35-5.6h0Zm0,31.2c-6.43,0-11.25-4.96-11.25-11.52s4.83-11.52,11.25-11.52,11.39,4.96,11.39,11.52-4.91,11.52-11.39,11.52Z"></path><path class="cls-1" d="m401.47,120.9c-5.36,0-10.37,2.13-12.88,6.19v-5.41h-7.73v37.89h8.99v-20.35c0-6.53,3.41-10.43,9.15-10.43,3.92,0,8.59,1.71,8.59,9.87v20.91h8.99v-22.13c.03-12.19-7.79-16.53-15.09-16.53h0Z"></path><path class="cls-1" d="m245.61,101.19h9.84l.08-.32c6.08-22.52,8.56-32.14,9.57-38.11.99,5.94,3.36,15.7,9.17,38.11l.08.32h10.05l13.99-51.49h-9.17l-.08.32c-6.08,23.37-8.4,32.84-9.46,38.89-1.23-6.48-3.86-17.16-9.54-38.89l-.08-.32h-9.57l-.08.32c-5.92,23.16-8.4,33.08-9.46,39.5-1.17-6.26-3.76-16.66-9.68-39.5l-.08-.32h-9.52l13.83,51.2.11.29Z"></path><path class="cls-1" d="m313.95,101.91c7.44,0,14.47-4.05,17.3-10.1l-6.8-3.46h-.13l-.13.24c-.83,1.71-3.84,5.68-10.15,5.68-5.73,0-10.1-3.65-10.77-8.96h29.24v-.4c.19-7.22-1.79-13.14-5.68-17.11-3.36-3.46-8.02-5.28-13.43-5.28s-10.23,2.03-13.73,5.68c-3.46,3.62-5.38,8.64-5.38,14.07,0,11.57,8.1,19.64,19.67,19.64Zm-.56-31.9c5.41,0,9.54,3.46,9.97,8.29h-20.1c.61-4.82,4.8-8.29,10.13-8.29Z"></path><path class="cls-1" d="m351,101.91c9.57,0,15.51-4.45,15.51-11.62,0-8.5-7.73-10.5-13.94-12.13-4.29-1.12-8-2.08-8-4.8,0-2.19,2.32-3.73,5.62-3.73,3.62,0,6.13,1.92,6.56,4.98l.27,1.55h.16l7.62-1.44c0-7.14-6.32-12.15-14.53-12.15s-14.34,4.66-14.34,11.33c0,8.08,7.49,10.07,13.51,11.67,4.37,1.17,8.13,2.19,8.13,5.01,0,2.48-2.43,4-6.32,4-4.69,0-7.84-2.19-8.24-5.7l-.08-.59-8.08,1.52c.05,7.92,8.8,12.1,16.13,12.1Z"></path><path class="cls-1" d="m373.34,94.18c0,4.26,2.69,7.73,7.17,7.73,5.54,0,7.17-.72,7.17-.72v-7.17s-1.65.27-3.68.27c-1.31,0-2.24-.8-2.24-1.97v-21.75h5.86l-.08-7.25h-5.76v-10.77l-8.42,2.11v8.66h-4.4v7.25h4.4v23.61h-.03Z"></path><path class="cls-1" d="m439.38,68.12v-4.8h-7.41v37.87h8.9l-.08-23.16c.11-2.32.91-4.1,2.32-5.3,1.87-1.57,4.8-2.11,8.66-1.57l.45.05.08-7.89-.37-.05c-5.3-.75-10.13.88-12.55,4.85h0Z"></path><path class="cls-1" d="m476.54,62.55c-5.36,0-10.37,2.13-12.87,6.18v-5.41h-7.7v37.87h8.98v-20.34c0-6.53,3.41-10.42,9.14-10.42,3.92,0,8.58,1.71,8.58,9.86v20.9h8.98v-22.12c0-12.18-7.84-16.53-15.11-16.53h0Z"></path><path class="cls-1" d="m409.03,62.55c-5.36,0-10.23,2.03-13.73,5.68-3.46,3.62-5.38,8.64-5.38,14.07,0,11.54,8.08,19.62,19.67,19.62,7.44,0,14.47-4.05,17.3-10.1l-6.8-3.46h-.13l-.13.24c-.83,1.71-3.84,5.68-10.15,5.68-5.73,0-10.1-3.65-10.77-8.96h29.24v-.4c.19-7.22-1.79-13.14-5.68-17.11-3.36-3.44-8.02-5.25-13.43-5.25h0Zm-10.15,15.75c.61-4.82,4.8-8.29,10.15-8.29s9.54,3.46,9.97,8.29h-20.12Z"></path><path class="cls-1" d="m74.52,147.05c10.11,17.47,26.64,17.47,36.7,0l5.63-9.75-50.54-87.55H18.35s56.17,97.3,56.17,97.3Z"></path><path class="cls-1" d="m180.99,109.63c-3.68,6.34-12.37,6.34-16.05,0l-34.62-59.89h-48.01l56.25,97.3c10.11,17.47,26.6,17.47,36.7,0l37.64-65.21-18.53-32.14h-47.96s34.58,59.93,34.58,59.93Z"></path></svg> 